<svg xmlns="http://www.w3.org/2000/svg" viewBox="0 0 512 512">
  <defs>
    <linearGradient id="bg" x1="0%" y1="0%" x2="100%" y2="100%">
      <stop offset="0%" stop-color="#10b981"/>
      <stop offset="100%" stop-color="#047857"/>
    </linearGradient>
  </defs>
  <rect width="512" height="512" rx="128" fill="url(#bg)"/>
  <path d="M256 96 C 290 140, 320 220, 270 290 C 230 350, 150 360, 120 330 C 90 300, 100 220, 160 170 C 200 130, 240 100, 256 96 Z" fill="#ffffff" opacity="0.95"/>
  <path d="M256 96 C 270 180, 360 200, 390 260 C 420 320, 370 390, 310 400 C 250 410, 210 350, 230 280 C 240 230, 250 140, 256 96 Z" fill="#a7f3d0"/>
  <path d="M256 96 L256 420" stroke="#064e3b" stroke-width="16" stroke-linecap="round"/>
</svg>
